<svg width="235" height="53" viewBox="0 0 235 53" fill="none" xmlns="http://www.w3.org/2000/svg">
<path fill-rule="evenodd" clip-rule="evenodd" d="M29.0176 26.3433C28.5206 27.6192 27.8301 28.8113 26.9703 29.878C27.506 30.4394 28.0943 30.9484 28.7272 31.3979C29.0824 31.6341 29.4514 31.849 29.8323 32.0412C31.9091 33.034 34.2276 33.4118 36.5129 33.1299C36.14 31.9735 35.5457 30.9004 34.7631 29.9699C33.2762 28.1958 31.2652 26.9363 29.0176 26.3716M7.76449 10.5431C8.04078 10.3451 8.33124 10.1613 8.6217 9.98459C10.2122 9.03638 11.9763 8.41419 13.8106 8.15443C15.645 7.89466 17.5129 8.00253 19.305 8.47173C21.9735 9.19983 24.3715 10.6886 26.2051 12.7558C26.5944 12.4398 27.0038 12.1494 27.4307 11.8863C29.3596 10.6742 31.6148 10.082 33.8917 10.1896C35.4051 10.2949 36.8679 10.7772 38.1464 11.5923C39.4248 12.4074 40.4781 13.5293 41.2099 14.8554C42.2206 16.661 42.5355 18.7728 42.0954 20.7938C41.9068 21.6157 41.5419 22.387 41.0258 23.0546C40.5097 23.7222 39.8546 24.2701 39.1058 24.6608C37.7413 25.3451 36.1698 25.4964 34.6993 25.0849C33.9741 24.9089 33.3103 24.5398 32.7788 24.0169C32.2473 23.494 31.868 22.8369 31.6814 22.1158C31.5165 21.5113 31.5155 20.874 31.6786 20.269C31.8416 19.6641 32.1629 19.1133 32.6094 18.6729C32.9944 18.3456 33.4567 18.1218 33.9527 18.0228C34.4486 17.9238 34.9617 17.9529 35.4432 18.1074L36.1516 18.2983L35.7691 19.7121L35.0606 19.5213C34.8104 19.4282 34.5401 19.402 34.2767 19.4454C34.0132 19.4888 33.7657 19.6003 33.5587 19.7687C33.2991 20.0404 33.1165 20.3759 33.0293 20.741C32.9422 21.1062 32.9538 21.4879 33.0628 21.8471C33.1889 22.3207 33.4423 22.7508 33.7957 23.091C34.149 23.4312 34.5889 23.6684 35.0677 23.7771C36.1915 24.0941 37.3933 23.9832 38.4399 23.466C39.0044 23.1679 39.4974 22.7513 39.8851 22.2448C40.2728 21.7383 40.5459 21.1541 40.6856 20.5322C41.0484 18.8465 40.7813 17.0866 39.9347 15.5836C39.3303 14.46 38.4522 13.5065 37.3812 12.8109C36.3102 12.1153 35.0809 11.7 33.8067 11.6035C31.8252 11.5094 29.8624 12.0225 28.1817 13.0739C27.8094 13.3058 27.4521 13.5608 27.1119 13.8374C29.052 16.3098 30.0352 19.3965 29.8819 22.5328C29.8256 23.3602 29.6856 24.1797 29.464 24.9789C31.9587 25.6329 34.1873 27.0463 35.8399 29.0226C36.7806 30.156 37.484 31.4661 37.9085 32.8754C40.3551 32.3853 42.6054 31.1937 44.3837 29.4468C45.5558 28.2699 46.481 26.8716 47.105 25.3336C47.7291 23.7956 48.0394 22.1489 48.018 20.4898C47.9046 14.9544 44.2916 9.79372 39.8142 6.75386C33.0699 2.187 25.015 1.38108 17.3426 3.92608C14.863 4.77442 9.76228 8.06877 7.7574 10.5148L7.76449 10.5431ZM28.0613 24.682C28.2683 23.9429 28.4012 23.1851 28.458 22.4197C28.4863 21.996 28.4863 21.5709 28.458 21.1472C28.2785 18.8571 27.4451 16.6663 26.0564 14.8342C25.243 15.7369 24.6083 16.7851 24.1861 17.9236C23.3928 20.0964 23.3036 22.4629 23.9311 24.689C25.2971 24.4755 26.6881 24.4755 28.0542 24.689L28.0613 24.682ZM26.0139 28.7893C26.6544 27.9515 27.1831 27.0343 27.5866 26.0605C26.5401 25.9262 25.4806 25.9262 24.434 26.0605C24.8346 27.0379 25.3635 27.9579 26.0068 28.7964L26.0139 28.7893ZM13.0353 17.5206C11.386 18.0476 9.98727 19.1592 9.10344 20.6453C8.44215 21.7331 8.06514 22.9692 8.00696 24.2401C7.94879 25.5111 8.21131 26.7763 8.77047 27.9198C9.67806 29.6782 11.1016 31.1185 12.8511 32.0483C13.2354 32.2556 13.633 32.4375 14.0413 32.5927C15.2208 29.6788 17.4108 27.2851 20.2118 25.8484C20.9496 25.4876 21.7206 25.1987 22.5142 24.9859C21.8273 22.4959 21.9363 19.854 22.8259 17.4287C23.3432 16.0507 24.1334 14.7908 25.1496 13.7243C23.5115 11.8567 21.3655 10.5036 18.972 9.82907C17.364 9.40856 15.6883 9.31201 14.0425 9.54506C12.3967 9.77811 10.814 10.3361 9.38681 11.1864C4.64027 14.0566 1.96946 19.7616 1.59399 25.1485C0.998898 33.2572 4.32856 40.6235 10.3857 45.968C12.3552 47.7071 17.8031 50.4784 20.8919 50.9732C20.5801 50.8318 20.2755 50.6834 19.978 50.5208C18.3584 49.6197 16.9353 48.4053 15.7918 46.9486C14.6483 45.492 13.8075 43.8223 13.3186 42.0374C12.6203 39.3679 12.7138 36.5534 13.5879 33.9359C10.957 32.9631 8.78106 31.0513 7.48111 28.5702C6.81691 27.2098 6.5052 25.7049 6.57451 24.1932C6.64382 22.6815 7.09193 21.2113 7.87784 19.9172C8.93503 18.1269 10.6139 16.7861 12.596 16.1491C13.4041 15.9019 14.2561 15.8319 15.0938 15.9442C15.9314 16.0565 16.7348 16.3483 17.4488 16.7995C18.7225 17.6389 19.6369 18.9219 20.0134 20.3979C20.2238 21.1095 20.2381 21.8646 20.0548 22.5836C19.8715 23.3027 19.4975 23.9591 18.972 24.484C18.5254 24.9375 17.9655 25.2638 17.3503 25.4291C16.735 25.5944 16.0867 25.5927 15.4723 25.4242C14.9923 25.2568 14.5639 24.9683 14.2288 24.5867C13.8936 24.2052 13.663 23.7436 13.5595 23.2469L13.3824 22.5399L14.7993 22.1794L14.9835 22.8863C15.029 23.1482 15.1417 23.3939 15.3105 23.5996C15.4793 23.8052 15.6986 23.9638 15.947 24.0598C16.3128 24.1448 16.6946 24.1335 17.0547 24.0269C17.4149 23.9203 17.7411 23.7222 18.0014 23.4519C18.3481 23.1048 18.5933 22.6699 18.7107 22.194C18.828 21.7181 18.8131 21.2194 18.6674 20.7514C18.3851 19.6088 17.6819 18.6144 16.6979 17.966C16.1565 17.6307 15.5483 17.4171 14.9158 17.3402C14.2833 17.2633 13.6415 17.3249 13.0353 17.5206ZM25.0433 29.8992C24.1827 28.8319 23.4899 27.64 22.9888 26.3645C22.257 26.558 21.5453 26.8207 20.8635 27.1492C20.4805 27.3366 20.1091 27.5467 19.7513 27.7784C17.8412 29.0702 16.3417 30.8805 15.4298 32.9956C16.6182 33.2525 17.8453 33.2765 19.0428 33.0663C21.328 32.6695 23.4285 31.5608 25.0433 29.8992ZM24.2853 42.914C25.5628 44.0767 27.2249 44.7286 28.9539 44.745C30.2286 44.7743 31.4902 44.4834 32.6229 43.8992C33.7556 43.3149 34.7229 42.4559 35.4361 41.4012C36.513 39.7392 37.0521 37.7871 36.9805 35.8093C36.9668 35.3733 36.9241 34.9388 36.853 34.5085C33.7362 34.9468 30.5653 34.2517 27.9196 32.5502C27.2308 32.0871 26.5901 31.5566 26.0068 30.9667C24.1945 32.818 21.8453 34.0545 19.2908 34.5014C17.8377 34.7532 16.3486 34.7099 14.9126 34.3742C14.1206 36.7321 14.0296 39.2684 14.6505 41.6769C15.091 43.2766 15.8458 44.7729 16.871 46.0788C17.8963 47.3846 19.1716 48.4741 20.6226 49.2836C25.4825 51.8993 31.7735 51.3832 36.6829 49.0715C44.0153 45.5368 48.7264 38.9693 50.3558 31.0586C50.8801 28.4853 50.5613 22.3985 49.449 19.4789C49.449 19.8182 49.4986 20.1858 49.5057 20.4969C49.5344 22.3452 49.1933 24.1808 48.5023 25.896C47.8114 27.6112 46.7845 29.1717 45.4818 30.486C43.5103 32.4262 41.0176 33.7546 38.3053 34.3105C38.3909 34.8035 38.4406 35.302 38.454 35.8022C38.5322 38.0761 37.909 40.3191 36.6688 42.2283C35.8221 43.4845 34.6724 44.5081 33.3255 45.2048C31.9786 45.9016 30.4777 46.2491 28.961 46.2155C26.8776 46.1907 24.8759 45.4032 23.336 44.0027C22.7171 43.4289 22.2306 42.7277 21.9101 41.9477C21.5896 41.1677 21.4428 40.3276 21.4799 39.4854C21.5679 37.9653 22.2224 36.533 23.3147 35.4699C23.8297 34.932 24.4807 34.5429 25.199 34.3438C25.9173 34.1447 26.6761 34.143 27.3953 34.3388C28.0135 34.4982 28.5778 34.8194 29.0299 35.2693C29.4821 35.7193 29.8055 36.2815 29.9669 36.898C30.0596 37.3957 30.0223 37.9089 29.8585 38.3881C29.6947 38.8673 29.41 39.2963 29.0318 39.6338L28.5217 40.1358L27.4732 39.0683L27.9904 38.5593C28.1936 38.3893 28.3494 38.1698 28.4425 37.9221C28.5356 37.6743 28.5629 37.4068 28.5217 37.1454C28.4149 36.7857 28.2143 36.4607 27.9405 36.2037C27.6667 35.9466 27.3294 35.7666 26.9632 35.682C26.4889 35.5536 25.9884 35.5575 25.5162 35.6934C25.044 35.8293 24.6182 36.0919 24.2853 36.4526C23.4499 37.263 22.9451 38.3536 22.8684 39.5136C22.8432 40.1491 22.9569 40.7824 23.2016 41.3695C23.4463 41.9567 23.816 42.4838 24.2853 42.914ZM0 27.0361C0.0259888 32.3981 1.70275 37.6226 4.80321 42.0021C5.65532 43.2275 6.62323 44.3685 7.69364 45.4096C8.02661 45.7065 8.33832 46.1165 8.91216 46.5902C9.09635 46.7457 9.16719 46.7598 9.35139 46.9154C12.618 49.6914 16.5337 51.6001 20.736 52.4649C23.8602 53.1718 25.6951 53.0233 28.798 52.882C31.4591 52.5559 34.0581 51.8438 36.5129 50.7682C37.9696 50.1552 39.3546 49.3847 40.6431 48.4706L44.5537 45.2187L44.9221 44.8157L45.6943 43.9674L46.7215 42.709C48.26 40.7024 49.4831 38.4735 50.3487 36.0991C50.933 34.5191 51.3693 32.8885 51.6522 31.2283C51.9777 29.3379 52.0752 27.4155 51.9427 25.502C51.7136 21.5746 50.5997 17.7494 48.6839 14.3111L47.4512 12.3104C47.2245 11.9923 47.0191 11.6813 46.7428 11.349C46.4665 11.0167 46.3177 10.7976 46.0343 10.4795L45.2834 9.60284C44.009 8.21529 42.5993 6.95779 41.0753 5.84897L40.1189 5.19858C39.4844 4.77181 38.8269 4.38004 38.1494 4.02505C37.7739 3.83418 37.5047 3.714 37.1222 3.52312C35.2956 2.61147 33.3567 1.94357 31.3555 1.53661C25.8413 0.409411 20.1105 1.06821 14.9976 3.41708C13.5934 4.08115 12.2473 4.86152 10.9737 5.75C10.6195 5.99036 10.3715 6.21658 10.0457 6.45694C8.86355 7.35502 7.77423 8.36862 6.79393 9.48266C6.53889 9.76544 6.29802 9.99873 6.08549 10.2886C4.1596 12.6265 2.64345 15.2724 1.60107 18.1144C1.46647 18.5174 1.33187 18.8638 1.2256 19.2456C0.708021 20.8845 0.354435 22.5705 0.170025 24.279L0.0637596 26.3998C0.0637596 26.5342 0.0637596 26.5907 0.0637596 26.6755C0.0255794 26.7921 0.00411356 26.9135 0 27.0361Z" fill="#F78D1E"/>
<path fill-rule="evenodd" clip-rule="evenodd" d="M226.3 16.8001H222.441V2.52127C226.03 2.52127 228.409 2.05816 230.609 4.41225C233.182 7.16511 233.002 16.8001 226.248 16.8001M220.189 18.9227C225.811 18.9227 231.291 19.8617 233.722 14.0987C235.202 10.6126 234.661 4.73385 231.703 2.35404C228.744 -0.0257761 224.602 0.411602 220.189 0.411602V18.9227Z" fill="#F78D1E"/>
<path fill-rule="evenodd" clip-rule="evenodd" d="M150.301 8.40032H148.847V2.38004L150.738 2.45722C153.311 2.68877 153.581 3.55065 153.581 5.96905C153.581 7.80858 152.076 8.40032 150.301 8.40032ZM146.647 18.9229H148.86V10.1755C149.529 10.317 149.645 10.6129 150.815 12.1823C151.381 12.9412 151.844 13.6102 152.41 14.3563C153.569 15.7949 154.639 17.3028 155.614 18.8715H158.521C157.234 16.9162 152.513 11.1532 151.973 10.1627C152.566 10.1387 153.148 9.99496 153.684 9.7402C154.22 9.48544 154.699 9.12489 155.092 8.68023C155.485 8.23558 155.784 7.71603 155.971 7.15283C156.158 6.58963 156.229 5.99443 156.18 5.40304C156.18 -0.167002 150.635 0.360417 146.647 0.360417V18.9229Z" fill="#F78D1E"/>
<path fill-rule="evenodd" clip-rule="evenodd" d="M174.214 11.4622L177.031 5.21036L179.848 11.4622H174.214ZM182.949 18.9489H185.521L177.031 0.502197L168.528 18.9232H171.101L173.172 13.9063H180.89L182.949 18.9489Z" fill="#F78D1E"/>
<path fill-rule="evenodd" clip-rule="evenodd" d="M197.883 0.412109H200.43V16.299H206.399V18.8974H200.43V18.9232H197.883V0.412109Z" fill="#F78D1E"/>
<path fill-rule="evenodd" clip-rule="evenodd" d="M124.404 0.502197V0.527921H131.454V3.11356H124.404V7.29431H131.454V9.87993H124.404V16.389H131.454V18.9875H124.404V19.0004H121.857V0.502197H124.404Z" fill="#F78D1E"/>
<path fill-rule="evenodd" clip-rule="evenodd" d="M97.5838 14.2917L104.968 0.0771897L107.373 18.7812L104.839 19.0899L103.604 7.0108L97.5838 18.7169L92.1038 7.20376L90.8174 18.9999L88.2832 18.6912L90.6887 0L97.5838 14.2917Z" fill="#F78D1E"/>
<path fill-rule="evenodd" clip-rule="evenodd" d="M67.5599 0.502197V0.527921H74.5964V3.11356H67.5599V7.29431H74.5964V9.87993H67.5599V16.389H74.5964V18.9875H67.5599V19.0004H65V0.502197H67.5599Z" fill="#F78D1E"/>
<rect x="65" y="25" width="170" height="28" rx="2" fill="#141510"/>
<path d="M77.4323 45V32.4H81.9503C82.9463 32.4 83.7683 32.574 84.4163 32.922C85.0763 33.258 85.5623 33.714 85.8743 34.29C86.1983 34.854 86.3603 35.496 86.3603 36.216C86.3603 36.888 86.2043 37.512 85.8923 38.088C85.5803 38.664 85.0943 39.126 84.4343 39.474C83.7743 39.822 82.9283 39.996 81.8963 39.996H79.5923V45H77.4323ZM84.0023 45L81.3563 39.438H83.6963L86.4683 45H84.0023ZM79.5923 38.394H81.8063C82.6103 38.394 83.1983 38.202 83.5703 37.818C83.9543 37.422 84.1463 36.906 84.1463 36.27C84.1463 35.646 83.9603 35.148 83.5883 34.776C83.2163 34.392 82.6223 34.2 81.8063 34.2H79.5923V38.394ZM91.2944 45V32.4H99.4304V34.146H93.4544V37.764H98.8904V39.474H93.4544V43.254H99.4304V45H91.2944ZM103.573 45L108.181 32.4H110.593L115.201 45H112.915L109.369 34.92L105.823 45H103.573ZM105.625 42.03L106.201 40.32H112.411L112.987 42.03H105.625ZM119.634 45V32.4H123.702C125.166 32.4 126.372 32.658 127.32 33.174C128.28 33.69 128.988 34.422 129.444 35.37C129.912 36.306 130.146 37.422 130.146 38.718C130.146 39.99 129.912 41.1 129.444 42.048C128.988 42.984 128.28 43.71 127.32 44.226C126.372 44.742 125.166 45 123.702 45H119.634ZM121.794 43.164H123.594C124.686 43.164 125.544 42.99 126.168 42.642C126.804 42.282 127.254 41.772 127.518 41.112C127.794 40.44 127.932 39.642 127.932 38.718C127.932 37.782 127.794 36.984 127.518 36.324C127.254 35.652 126.804 35.136 126.168 34.776C125.544 34.404 124.686 34.218 123.594 34.218H121.794V43.164ZM137.333 45V40.464L133.139 32.4H135.587L138.665 38.808H138.197L141.275 32.4H143.705L139.493 40.464V45H137.333ZM159.28 45.216C158.368 45.216 157.558 45.054 156.85 44.73C156.142 44.406 155.59 43.944 155.194 43.344C154.798 42.744 154.594 42.03 154.582 41.202H156.868C156.868 41.622 156.964 42 157.156 42.336C157.36 42.66 157.636 42.918 157.984 43.11C158.344 43.302 158.776 43.398 159.28 43.398C159.712 43.398 160.084 43.332 160.396 43.2C160.72 43.056 160.966 42.858 161.134 42.606C161.314 42.342 161.404 42.036 161.404 41.688C161.404 41.292 161.308 40.968 161.116 40.716C160.936 40.452 160.684 40.23 160.36 40.05C160.036 39.87 159.664 39.714 159.244 39.582C158.824 39.438 158.38 39.288 157.912 39.132C156.916 38.796 156.166 38.37 155.662 37.854C155.158 37.326 154.906 36.624 154.906 35.748C154.906 35.016 155.08 34.386 155.428 33.858C155.776 33.33 156.262 32.922 156.886 32.634C157.522 32.334 158.254 32.184 159.082 32.184C159.922 32.184 160.654 32.334 161.278 32.634C161.914 32.934 162.412 33.354 162.772 33.894C163.144 34.422 163.336 35.058 163.348 35.802H161.044C161.032 35.49 160.948 35.202 160.792 34.938C160.636 34.662 160.408 34.44 160.108 34.272C159.82 34.092 159.466 34.002 159.046 34.002C158.686 33.99 158.362 34.05 158.074 34.182C157.798 34.302 157.576 34.482 157.408 34.722C157.252 34.95 157.174 35.238 157.174 35.586C157.174 35.922 157.246 36.204 157.39 36.432C157.546 36.648 157.768 36.834 158.056 36.99C158.344 37.134 158.68 37.272 159.064 37.404C159.448 37.536 159.868 37.68 160.324 37.836C160.948 38.04 161.512 38.292 162.016 38.592C162.532 38.88 162.94 39.258 163.24 39.726C163.54 40.194 163.69 40.8 163.69 41.544C163.69 42.192 163.522 42.798 163.186 43.362C162.85 43.914 162.358 44.364 161.71 44.712C161.062 45.048 160.252 45.216 159.28 45.216ZM171.249 45V34.146H167.541V32.4H177.099V34.146H173.391V45H171.249ZM186.829 45.216C185.617 45.216 184.543 44.946 183.607 44.406C182.683 43.854 181.957 43.092 181.429 42.12C180.901 41.136 180.637 39.996 180.637 38.7C180.637 37.416 180.901 36.288 181.429 35.316C181.957 34.332 182.683 33.564 183.607 33.012C184.543 32.46 185.617 32.184 186.829 32.184C188.065 32.184 189.151 32.46 190.087 33.012C191.023 33.564 191.749 34.332 192.265 35.316C192.781 36.288 193.039 37.416 193.039 38.7C193.039 39.996 192.781 41.136 192.265 42.12C191.749 43.092 191.023 43.854 190.087 44.406C189.151 44.946 188.065 45.216 186.829 45.216ZM186.847 43.272C187.651 43.272 188.353 43.092 188.953 42.732C189.553 42.36 190.015 41.832 190.339 41.148C190.663 40.464 190.825 39.648 190.825 38.7C190.825 37.752 190.663 36.936 190.339 36.252C190.015 35.568 189.553 35.046 188.953 34.686C188.353 34.314 187.651 34.128 186.847 34.128C186.043 34.128 185.341 34.314 184.741 34.686C184.141 35.046 183.673 35.568 183.337 36.252C183.013 36.936 182.851 37.752 182.851 38.7C182.851 39.648 183.013 40.464 183.337 41.148C183.673 41.832 184.141 42.36 184.741 42.732C185.341 43.092 186.043 43.272 186.847 43.272ZM203.447 45.216C202.199 45.216 201.119 44.946 200.207 44.406C199.307 43.854 198.611 43.092 198.119 42.12C197.639 41.136 197.399 40.002 197.399 38.718C197.399 37.422 197.639 36.288 198.119 35.316C198.611 34.332 199.307 33.564 200.207 33.012C201.119 32.46 202.199 32.184 203.447 32.184C204.947 32.184 206.171 32.556 207.119 33.3C208.067 34.032 208.667 35.07 208.919 36.414H206.543C206.375 35.706 206.033 35.148 205.517 34.74C205.001 34.332 204.305 34.128 203.429 34.128C202.637 34.128 201.953 34.314 201.377 34.686C200.813 35.046 200.375 35.574 200.063 36.27C199.763 36.954 199.613 37.77 199.613 38.718C199.613 39.666 199.763 40.482 200.063 41.166C200.375 41.838 200.813 42.36 201.377 42.732C201.953 43.092 202.637 43.272 203.429 43.272C204.305 43.272 205.001 43.086 205.517 42.714C206.033 42.33 206.375 41.802 206.543 41.13H208.919C208.679 42.402 208.079 43.404 207.119 44.136C206.171 44.856 204.947 45.216 203.447 45.216ZM213.733 45V32.4H215.893V37.602L220.645 32.4H223.327L218.665 37.404L223.435 45H220.807L217.135 39.06L215.893 40.41V45H213.733Z" fill="white"/>
</svg>
